<svg width="158" height="170" viewBox="0 0 158 170" fill="none" xmlns="http://www.w3.org/2000/svg">
<path d="M9 153.5L24.124 161.942L23.8729 144.623L9 153.5ZM137.792 99.1063L139.284 98.9491L137.792 99.1063ZM136.823 106.72L135.424 106.178L135.424 106.178L136.823 106.72ZM114.685 94.1218L114.574 95.6177L114.685 94.1218ZM105.779 68.3325L105.024 67.0363L105.779 68.3325ZM125.5 16L124.387 17.0054C146.722 41.7341 150.729 61.2209 146.24 74.0239C141.756 86.8116 128.549 93.641 114.795 92.6258L114.685 94.1218L114.574 95.6177C129.353 96.7084 144.038 89.3698 149.071 75.0166C154.098 60.6787 149.245 40.0518 126.613 14.9946L125.5 16ZM105.779 68.3325L106.534 69.6287C112.163 66.3502 118.905 68.5917 124.834 74.6013C130.712 80.5603 135.308 89.8356 136.301 99.2634L137.792 99.1063L139.284 98.9491C138.22 88.8438 133.325 78.9367 126.969 72.4944C120.664 66.1026 112.429 62.7237 105.024 67.0363L105.779 68.3325ZM136.823 106.72L135.424 106.178C132.433 113.902 126.176 120.533 117.759 126.173C109.349 131.808 98.882 136.385 87.6487 140.035C65.1812 147.335 39.8773 150.853 22.4209 151.806L22.5027 153.304L22.5845 154.802C40.2273 153.838 65.7998 150.289 88.5758 142.888C99.9642 139.188 110.711 134.507 119.429 128.665C128.141 122.827 134.929 115.762 138.222 107.261L136.823 106.72ZM137.792 99.1063L136.301 99.2634C136.549 101.621 136.268 104 135.424 106.178L136.823 106.72L138.222 107.261C139.25 104.607 139.579 101.746 139.284 98.9491L137.792 99.1063ZM114.685 94.1218L114.795 92.6258C108.914 92.1918 104.281 87.8862 102.438 82.8372C100.606 77.8195 101.635 72.4818 106.534 69.6287L105.779 68.3325L105.024 67.0363C98.5298 70.8189 97.438 77.8908 99.6196 83.8661C101.79 89.8103 107.306 95.0813 114.574 95.6177L114.685 94.1218Z" fill="black"/>
</svg>
