<svg viewBox="0 0 343 108" fill="none" xmlns="http://www.w3.org/2000/svg">
    <g clip-path="url(#clip0_10_70)">
        <path
            d="M328.911 62.4628C331.566 68.9006 329.242 78.0211 325.989 82.5829C325.014 84.063 325.161 83.1001 324.444 84.0825C323.042 85.9418 321.846 87.7117 320.21 89.2302C319.675 89.7173 319.858 88.6634 319.309 89.1762C316.279 91.9756 313.425 94.4841 310.041 96.654C294.915 106.067 278.055 110.198 260.879 110.982C259.081 111.053 257.284 111.116 255.476 111.172C249.342 111.365 241.905 111.061 235.582 111.409C234.843 111.451 235.294 111.958 235.154 112.004C232.96 112.693 233.682 111.639 232.242 111.523C226.526 111.062 220.187 111.043 214.707 111.218C212.384 111.293 214.713 112.33 212.356 111.742C212.193 111.702 212.789 111.158 212.149 111.095C210.719 110.955 207.937 111.026 206.831 110.969C204.635 110.855 204.326 110.856 202.247 110.816C199.454 110.758 196.129 110.417 193.112 110.464C192.477 110.476 193.299 111.059 192.291 111.128C191.242 111.197 188.539 111.072 187.637 110.911C186.753 110.751 187.138 110.321 186.981 110.215C185.631 109.319 182.549 110.394 182.086 110.405C179.037 110.497 176.195 110.385 173.396 110.177C173.392 110.177 173.38 110.176 173.376 110.176C169.427 109.847 165.612 109.385 161.579 109.143C156.365 108.832 150.776 108.718 145.816 108.389C139.907 107.994 134.916 107.389 129.17 107.095C128.564 107.063 129.234 107.765 128.494 107.728C120.625 107.331 112.82 106.788 105.017 105.872C104.234 105.779 105.281 105.261 104.501 105.134C99.7266 104.369 92.1952 102.769 89.1906 105.117C85.9429 104.822 81.9989 104.483 79.1187 103.799C77.2616 103.359 79.1224 102.839 76.8008 102.969C76.2772 102.997 76.9201 103.59 76.1375 103.591C72.8422 103.596 69.2662 103.2 66.0012 103.29C65.3371 103.309 65.4877 103.815 65.2951 103.893C63.6785 104.519 61.1317 103.169 60.566 103.048C59.6369 102.852 58.7598 102.701 57.9149 102.583C57.8083 102.578 57.5025 102.525 57.399 102.499C54.4127 101.41 51.8076 100.731 48.7643 99.6675C47.8468 99.3433 48.7069 100.349 47.827 100.062C43.2734 98.5603 38.6822 96.6667 34.5222 94.418C33.6039 93.9173 34.7134 93.8079 34.2881 93.5421C32.4137 92.3661 31.5061 93.1134 29.7195 91.9358C29.344 91.687 29.7926 91.3731 29.7449 91.2881C29.0102 89.9611 27.4847 90.471 27.1796 90.3307C23.3608 88.582 21.7507 86.1062 18.4485 83.8026C18.0523 83.5202 18.5384 84.6856 17.4452 83.8537C14.1856 81.3276 11.0087 78.2453 8.83206 74.2431C6.40761 69.7312 4.48847 64.9224 3.29841 60.1075C2.96949 58.75 3.6983 59.5734 3.72676 59.4717C4.17942 57.8736 2.81419 57.3068 2.65802 56.8655C1.47133 53.4196 2.03998 49.9975 0.511129 47.6072C0.240414 38.9567 2.85118 29.5263 9.435 23.3317C14.6951 18.4368 21.0563 16.0503 27.3486 14.3695C27.5309 14.3216 27.407 14.9858 27.7683 14.8885C32.1324 13.7725 31.0261 13.2024 33.6034 11.2834C34.2565 10.8017 36.8254 11.5094 37.0411 11.5598C37.8463 11.728 37.323 12.7635 37.5792 12.7703C39.6658 12.8145 38.6552 10.0829 41.3539 9.45716C41.4391 9.44269 41.2037 10.041 41.4411 10.0411C42.1727 10.0446 42.8255 9.68422 43.5505 9.7155C45.2034 9.79751 46.0413 11.0499 48.2713 9.79305C48.5633 9.6329 47.7749 8.10388 50.2232 7.74384C51.2068 7.5903 55.4502 6.88182 56.7132 6.83247C57.3435 6.80061 57.4201 6.95205 57.4039 7.10298C57.3886 7.25412 57.2291 7.4138 57.2713 7.41979C57.3864 7.42896 57.4669 7.44227 57.6035 7.44817C57.6609 7.45253 57.7087 7.45808 57.7478 7.46465C57.7569 7.47489 57.9021 7.4684 57.889 7.48132C57.9253 7.47636 58.0339 7.47113 58.0705 7.47051C60.5383 8.07239 59.5804 8.38931 61.0878 9.35058C62.7068 10.3793 62.2578 7.92572 62.9178 7.65186C63.579 7.37878 65.9485 7.95425 66.5309 8.1543C67.1128 8.35444 66.387 8.6896 66.9044 8.80286C70.3359 9.54282 68.4106 7.58499 69.5412 7.19556C72.2069 6.27348 74.283 8.09307 76.7234 8.27136C77.3837 8.31951 76.8449 7.90509 77.4328 7.86634C79.7615 7.71833 81.1621 8.28609 83.8114 7.76551C84.2448 7.68067 86.3865 6.58669 87.7729 7.38953C87.9692 7.5053 87.4113 7.95874 88.4038 8.06031C89.8863 8.21274 92.5577 8.31185 94.1514 8.16028C95.328 8.04814 93.9794 7.30098 95.4604 7.53309C96.1186 7.63672 94.8987 8.07382 96.1353 8.23206C97.3653 8.39025 100.51 8.37105 101.707 8.35596C102.902 8.34053 102.248 7.77378 102.344 7.7356C102.929 7.51688 105.221 7.24359 105.424 7.24427C115.643 7.17508 125.066 8.1304 135.016 7.81421C135.796 7.79022 135.276 7.19257 135.395 7.18274C138.068 6.93234 135.961 8.52136 137.828 9.05322C137.558 7.84042 138.661 8.06001 140.544 7.92701C141.451 7.86193 140.957 7.39232 141.039 7.34424C142.385 6.63096 143.322 7.55226 143.563 7.74073C144.454 8.43401 145.424 7.61485 146.031 8.07825C146.637 8.53819 145.242 9.22004 147.048 9.2113C147.554 8.77716 146.213 7.64262 147.584 7.45874C152.757 6.76323 162.413 7.65339 166.573 7.74585C170.174 7.82601 171.66 7.77633 173.57 7.86423C173.861 7.87764 174.163 7.89426 174.483 7.91504C178.852 8.19873 177.251 7.35698 179.964 6.97169C182.685 6.58644 181.362 8.65755 181.753 9.10278C182.137 9.54781 182.556 9.0897 183.034 9.33435C183.51 9.57894 182.479 9.88166 183.599 9.97351C184.719 10.0653 187.782 9.27352 188.179 8.80798C189.018 7.8217 187.638 6.78656 190.602 7.15027C190.772 7.17186 190.219 7.71645 190.872 7.77149C196.056 8.19074 201.442 8.21672 206.621 8.58753C207.333 8.63936 206.696 9.2452 207.11 9.28223C211.426 9.66973 209.883 8.64821 212.249 7.51343C211.718 9.02358 213.026 9.9475 216.301 9.95642C218.271 9.96231 217.932 9.30275 219.205 8.83789C219.587 8.69776 220.98 9.15063 221.233 8.84045C222.065 7.82652 220.753 6.69148 224.13 7.14344C224.278 7.16492 223.807 7.71993 224.319 7.75354C227.628 7.97355 228.024 6.91299 231.601 6.78455C234.405 6.68377 239.392 7.33049 242.585 7.43567C242.518 9.13352 245.533 8.74474 246.757 7.5741C248.829 7.62203 251.067 7.55585 253.069 7.71766C253.758 7.77282 253.306 8.26439 253.393 8.31751C254.725 9.15071 255.626 8.01182 256.073 7.96717C257.683 7.82302 259.194 7.82196 260.663 7.85393C260.69 7.85348 260.768 7.85883 260.794 7.86138C263.695 8.26148 266.441 8.78973 269.607 8.60877C269.781 8.59949 270.152 7.45626 271.301 8.46543C271.367 8.5335 269.781 8.87844 271.942 9.18699C274.105 9.49556 278.091 10.6349 281.164 10.4845C281.915 10.4493 283.868 9.73937 285.246 10.6778C285.429 10.8046 285.17 11.1113 285.427 11.3356C286.261 12.052 286.928 10.9387 287.863 12.0874C288.804 13.2372 290.933 14.2914 294.044 14.028C294.142 14.0215 294.994 13.1881 295.939 13.3398C297.449 13.5825 299.579 14.0964 301.149 14.3305C301.906 14.4431 301.511 13.7891 301.644 13.7986C306.799 14.2715 310.316 15.3414 315.692 16.6807C316.213 16.8144 317.283 16.8354 318.392 16.9973C319.475 17.1553 320.648 17.5951 321.363 18.2934C322.924 19.978 319.752 21.1981 323.687 23.2293C325.172 24.0636 329.714 23.295 330.52 27.3279C335.168 32.493 337.274 38.6648 340.092 44.9371C340.218 45.2173 341.493 45.8547 341.688 46.579C341.974 47.6453 341.665 48.3572 341.82 49.1187C342.448 52.3193 343.304 55.2428 343.361 58.4303C343.369 59.6282 342.879 59.2283 342.832 60.6385C342.76 62.0423 343.359 63.0645 342.757 64.9432C342.596 65.4289 342.297 65.8836 341.949 66.3272C341.281 67.1731 340.43 67.9818 339.938 69.0824C341.143 69.5769 340.727 70.8229 340.038 73.0983C339.902 73.5412 340.525 73.2922 340.481 73.5132C340.308 74.4167 339.596 74.973 339.417 75.8322C339.373 76.0398 339.759 76.2646 339.743 76.4487C339.618 78.0502 337.486 79.5387 337.124 79.7579C335.724 80.6741 335.794 81.5792 334.89 82.3862C333.99 83.1766 334.754 81.5781 333.824 82.5778C331.896 84.6469 329.658 87.4671 327.732 89.5778C326.968 90.4187 327.929 90.2422 327.83 90.3718C326.352 92.2392 324.24 93.5106 324.16 95.2796C320.819 94.277 323.378 96.517 320.491 98.4356C320.262 98.5848 319.016 97.7661 319.612 96.9029C320.19 96.0568 321.609 95.308 322.374 94.0646C322.55 93.782 322.913 91.4595 323.018 91.226C323.938 89.3277 325.709 90.592 325.874 90.5929C327.664 90.5614 328.124 87.828 328.433 87.3049C329.9 84.8885 331.604 83.2283 332.703 81.1646C333.421 79.8081 332.326 78.8845 333.011 77.952C335.192 74.8845 337.674 74.5617 337.577 70.6188C337.516 69.7827 335.866 69.8937 337.863 67.9241C337.964 67.8323 339.101 66.7942 339.203 65.7331C339.227 65.4981 339.205 65.2635 339.116 65.0453C339.053 64.8931 338.607 64.8163 338.601 64.6342C338.556 63.4193 339.005 62.6592 338.905 61.3114C338.801 59.9668 338.517 58.3671 338.536 56.8098C338.553 55.8735 339.229 54.555 339.359 54.0533C339.752 52.6493 338.506 51.4412 339.023 50.4857C339.531 49.4938 341.007 50.8827 340.912 48.5586C339.751 48.7711 338.535 48.8947 337.359 49.0779C336.186 44.5499 334.728 40.0219 332.338 35.8886C332.039 35.3792 331.789 36.2144 331.455 35.6846C330.045 33.47 329.126 31.2966 327.294 29.3199C325.868 27.7921 323.846 26.6442 322.232 25.5352C322.181 23.6972 319.39 22.3253 317.759 21.7555C317.481 21.6462 317.371 21.5235 317.284 21.3931C317.153 21.2431 317.062 21.0894 316.773 20.957C314.616 20.0146 315.418 21.4252 314.751 21.4688C311.91 21.6973 312.186 19.0113 308.886 18.4933C308.715 18.4642 306.341 19.5179 306.039 19.5604C304.064 19.8273 305.802 19.0143 304.659 18.7211C302.543 18.1847 301.123 17.6176 298.535 17.6556C297.789 17.6699 295.892 18.2951 294.569 17.4064C294.394 17.2897 294.565 16.8348 294.417 16.7856C291.743 15.9364 291.462 17.4053 289.829 17.6883C288.197 17.9717 285.92 16.6257 285.461 16.2652C284.271 15.3316 286.497 16.0731 286.575 16.008C287.516 15.2308 285.722 15.1435 284.386 14.8899C284.39 13.4149 282.474 13.2506 282.992 14.632C283.048 14.7828 284.131 14.7884 284.386 14.8899C283.007 16.1536 280.911 16.0625 278.79 14.4382C277.785 13.6761 278.922 13.0811 275.604 12.9302C274.117 12.8646 274.539 13.9323 273.213 14.043C270.164 14.2926 266.38 12.8851 263.286 12.6684C262.124 12.5851 263.169 13.2635 262.401 13.2289C261.619 13.1937 260.912 13.0872 260.209 12.9659L260.663 12.9919C259.459 12.9258 258.276 12.8152 256.996 12.9471C256.81 12.967 257.265 13.5439 256.626 13.5513C251.78 13.6183 247.56 13.2488 242.5 13.2385C240.055 13.2338 235.684 13.552 233.152 13.488C228.763 13.3806 223.363 12.5417 219.613 12.7455C217.168 12.8759 217.704 13.4529 216.656 13.8461C214.634 14.6081 211.055 13.2431 210.573 13.0317C210.558 13.0247 212.662 12.8887 211.54 12.5925C210.887 11.9754 210.596 13.029 210.573 13.0317C210.256 12.8952 206.052 12.7642 205.217 12.8745C204.764 12.9348 205.018 13.4815 204.781 13.5025C199.16 13.9918 193.528 14.1307 187.827 13.8751C187.727 13.8641 187.878 13.2526 187.642 13.2342C184.341 12.9624 182.228 13.7104 179.505 14.1545C177.085 14.5493 175.11 14.4754 173.57 13.7162C173.378 13.6216 173.192 13.5163 173.014 13.4C170.96 13.5322 168.014 13.0681 166.318 12.7865C164.623 12.5049 164.386 13.6952 164.237 13.7187C159.584 14.4719 156.894 13.7906 152.067 13.6846C149.772 13.6321 145.219 13.8048 142.735 13.9349C140.771 14.0398 139.588 13.7608 137.778 13.9392C137.533 13.963 137.78 14.493 137.706 14.5134C135.686 15.1475 136.657 13.8519 136.24 13.6205C134.728 12.779 133.794 12.3308 131.208 12.7267C130.611 12.8173 128.874 14.6829 127.786 14.792C126.373 14.9304 126.906 14.2617 125.426 14.4237C125.299 14.4369 125.326 14.8495 124.412 14.8313C120.171 14.7523 115.547 14.5122 111.14 14.5536C110.538 14.5576 111.31 15.212 110.44 15.2286C106.359 15.3062 101.885 15.282 97.9089 14.9757C96.9302 14.8982 97.5437 14.4401 97.3313 14.3041C96.027 13.481 94.1772 14.6769 93.872 14.6997C86.5919 15.2744 81.0202 14.1921 73.6 14.7074C73.1961 14.7376 70.087 16.0197 68.7 14.9201C68.605 14.847 67.2327 13.722 66.0192 14.4912C65.9438 14.5393 66.799 15.1185 65.3067 15.0594C63.8143 15.0005 61.4126 15.3873 59.3613 14.751C59.082 14.6648 58.6389 14.4081 58.0705 14.2147L58.6896 14.1778C58.0626 13.9963 57.0351 13.9901 56.0704 14.6498C55.9146 14.7309 53.4332 17.169 52.1671 15.9795C51.9548 15.7857 51.895 14.2861 49.8069 15.4395C49.4087 15.6636 50.2465 15.8405 49.1558 16.2561C47.5295 16.8875 45.2 16.9609 43.2849 18.0729C42.9427 18.2692 41.6638 19.5938 40.2703 19.1591C40.0522 19.091 40.2937 18.5217 39.6393 18.6295C36.5151 19.1462 33.4567 20.3682 30.3838 21.0578C29.2947 21.3074 29.5718 20.3644 28.3981 20.5582C27.2268 20.7471 24.9621 21.4195 24.012 22.2432C23.08 23.0577 24.7553 23.6885 23.2259 24.5072C20.2656 26.1236 17.4326 27.7873 15.501 29.5191C12.9025 31.8584 10.8871 34.7576 9.83567 38.2469C9.56578 39.1945 10.1926 38.5179 9.88239 39.9213C8.46884 45.124 10.5662 55.1569 11.6941 60.4341C12.4946 64.7305 9.99404 59.8562 10.9083 63.0807C11.3752 64.6581 13.4567 65.6444 13.6607 65.965C14.6419 67.5173 15.3273 68.9066 15.9954 70.2651C16.5269 71.3831 17.202 72.5414 18.3025 73.6334C18.7512 74.0725 18.7898 73.2213 19.1585 73.5835C20.4364 74.8216 21.7329 76.3298 23.235 77.4394C23.9084 77.931 24.0662 77.4758 24.6605 77.96C26.0989 79.1104 27.3876 80.1872 28.7672 81.5268C28.8959 81.6502 27.6023 81.5323 28.8247 82.2955C30.7971 83.5186 33.1956 85.2907 35.8558 86.0939C36.6417 86.3264 37.1206 85.4062 38.3897 86.7878C38.6581 87.0737 37.7209 88.0375 40.0264 87.876C40.4264 87.8649 44.1173 87.8508 45.3454 89.3356C45.653 89.7245 46.3742 91.1075 47.3407 91.2973C47.4771 91.3208 47.163 90.6041 47.9611 90.8443C50.7317 91.6818 53.5833 92.723 56.4407 93.4257C57.2184 93.6153 56.281 92.7198 57.3858 93.0027C58.1801 93.2052 59.0897 93.4536 59.7801 93.6389L58.4667 93.4251C61.1949 93.5793 64.1318 93.8731 66.5642 94.1554C67.7673 94.2962 66.9039 94.7261 66.9886 94.7836C68.35 95.7188 69.2544 94.6218 69.7272 94.5831C72.6672 94.3582 74.8551 95.0309 77.5515 95.0503C78.2955 95.0571 77.8025 94.4783 77.9531 94.4384C79.5131 94.0541 78.3133 94.9678 79.276 95.1345C81.9729 95.6047 85.0025 95.7432 87.7527 95.8387C88.763 95.873 87.6675 95.1704 88.5737 95.2085C93.9378 95.422 99.5037 95.8182 104.711 96.483C105.692 96.6093 105.043 97.0604 105.241 97.1843C106.608 98.0501 108.745 97.1103 109.228 97.0376C111.425 96.7052 112.241 97.1879 114.161 97.2227C123.54 97.3849 135.073 98.367 143.893 99.0757C154.905 99.958 163.538 100.915 173.9 101.47L173.866 101.468C174.218 101.483 174.764 101.506 175.177 101.521C175.87 101.547 175.181 100.863 175.82 100.878C183.489 101.073 191.111 101.557 198.853 101.526C199.485 101.524 198.584 100.889 199.604 100.865C201.717 100.812 204.341 100.887 206.46 101.11C207.502 101.218 206.094 101.73 207.146 101.828C209.536 102.055 212.146 102.12 214.633 102.031C215.684 101.992 214.1 101.355 215.467 101.352C224.822 101.32 234.007 101.114 243.457 101.66C244.109 101.697 244.712 102.963 246.081 102.673C246.173 102.314 246.154 101.896 246.187 101.514C250.92 101.289 255.634 101.098 260.338 100.888C268.736 100.515 277.093 99.2524 285.124 96.7081C285.638 96.5433 284.537 96.189 285.537 95.8622C291.299 93.9498 296.541 91.41 302.005 88.7886C302.542 88.5221 302.949 89.7027 304.339 88.555C304.579 88.3714 306.689 86.6573 307.037 86.0288C307.085 85.9406 306.365 85.8 307.02 85.2595C310.771 82.1611 314.235 78.55 316.275 74.8826C316.603 74.2844 316.852 75.1925 317.092 74.7551C318.817 71.5552 318.531 68.138 317.807 65.1745C317.249 63.1323 318.466 63.3364 318.64 61.6863C318.666 61.4339 317.728 60.154 318.109 59.7166C319.09 58.5785 320.915 58.2544 321.907 56.9742C322.152 56.6845 319.982 54.8284 321.718 55.5237C321.859 55.5722 323.354 56.9566 323.888 57.2668C324.263 57.4643 324.355 56.5518 325.008 57.0581C325.665 57.5896 325.688 58.5345 326.57 59.6043C327.41 60.698 327.856 59.7823 328.911 62.4628ZM158.684 11.5278C157.114 10.9562 156.883 13.0499 158.581 12.5489C158.663 12.5222 158.765 11.5559 158.684 11.5278ZM336.003 39.48C336 37.2709 334.147 36.6978 334.139 38.2452C334.106 39.7723 335.992 40.1381 336.003 39.48ZM341.541 59.1165C342.187 56.7549 339.196 56.6473 339.897 58.9582C339.934 59.0905 341.501 59.2504 341.541 59.1165ZM321.193 67.3017C321.229 67.2783 321.031 66.1672 320.987 66.1485C320.225 65.7501 320.608 67.8559 321.193 67.3017ZM336.139 78.4677C336.895 78.056 337.581 75.9951 336.685 76.5232C335.981 76.9394 335.225 78.9646 336.139 78.4677ZM76.7893 9.29333C76.7645 9.26214 75.8544 9.23404 75.8727 9.4104C75.9345 9.97841 77.2011 9.8181 76.7893 9.29333ZM311.972 104.549C316.062 101.24 320.103 100.834 315.558 104.499C314.725 105.159 316.752 102.417 315.592 103.138C313.494 104.435 313.254 106.664 310.744 107.609C310.307 107.774 311.767 104.718 311.977 104.54C311.975 104.543 311.974 104.546 311.972 104.549ZM157.78 9.01306C157.749 8.98538 156.489 8.95912 156.459 8.98657C155.776 9.65125 158.314 9.70452 157.78 9.01306ZM24.3383 16.0956C24.2484 16.0527 21.482 17.1458 21.4254 17.2472C20.4608 18.8291 25.9487 16.6521 24.3383 16.0956ZM242.635 7.48096C244.01 6.81229 245.654 6.73356 246.75 7.57325C245.384 7.52867 244.009 7.52211 242.635 7.48096Z"
            fill="#155DFC" />
    </g>
    <defs>
        <clipPath id="clip0_10_70">
            <rect width="343" height="108" fill="white" />
        </clipPath>
    </defs>
</svg>